<svg width="625" height="522" viewBox="0 0 625 522" fill="none" xmlns="http://www.w3.org/2000/svg">
<mask id="mask0_42_150" style="mask-type:luminance" maskUnits="userSpaceOnUse" x="0" y="1" width="625" height="521">
<path d="M625 1.62939H0V521.427H625V1.62939Z" fill="white"/>
</mask>
<g mask="url(#mask0_42_150)">
<path d="M341.15 146.387C372.933 146.387 398.698 121.557 398.698 90.928C398.698 60.2987 372.933 35.4688 341.15 35.4688C309.367 35.4688 283.6 60.2987 283.6 90.928C283.6 121.557 309.367 146.387 341.15 146.387Z" fill="#A0616A"/>
<path d="M298.196 118.658C298.196 118.658 309.038 197.426 292.358 206.268C275.677 215.108 391.608 215.913 391.608 215.913C391.608 215.913 365.754 147.593 377.429 126.695L298.196 118.658Z" fill="#A0616A"/>
<path d="M476.263 216.311L466.621 258.621L446.235 348.134L445.625 353.037L438.59 409.788L433.908 447.488L430.771 472.816C411.692 482.264 397.863 488.789 397.863 488.789C397.863 488.789 396.673 483.041 394.756 475.689C381.365 479.557 356.59 485.976 335.592 487.257C343.238 495.47 346.752 503.186 341.985 508.88C327.602 526.045 268.219 490.086 247.448 476.676C246.965 479.887 246.781 483.133 246.9 486.375L231.006 474.594L232.579 447.488L235.231 401.627L238.567 344.114C237.515 341.651 236.633 339.123 235.929 336.549C231.06 319.868 225.152 286.556 220.621 258.621C216.975 236.139 214.235 217.14 213.656 213.098C213.577 212.57 213.54 212.299 213.54 212.299L301.525 174.831C307.779 188.806 336.977 193.007 336.977 193.007C361.167 191.4 380.129 179.107 380.129 179.107L476.263 216.311Z" fill="#D0CDE1"/>
<path d="M404.538 472.717C404.538 472.717 400.813 473.946 394.756 475.689C381.365 479.557 356.59 485.974 335.592 487.257C317.515 488.373 302.238 485.689 299.444 474.323C298.246 469.437 299.944 465.415 303.646 462.113C314.696 452.241 343.558 448.703 366.45 447.489C372.913 447.149 378.892 446.991 383.871 446.93C392.321 446.826 397.863 446.991 397.863 446.991L397.996 447.489L404.538 472.717Z" fill="#A0616A"/>
<path d="M293.273 38.4685L282.515 34.3172C282.515 34.3172 305.013 10.4468 336.315 12.5226L327.51 3.18196C327.51 3.18196 349.031 -5.12068 368.596 16.6739C378.879 28.1309 390.779 41.5979 398.196 56.7682H409.721L404.91 66.9737L421.744 77.179L404.467 75.346C405.496 80.9346 405.654 86.6401 404.935 92.2734C404.194 97.9088 401.21 103.046 396.613 106.601C396.613 106.601 383.269 79.9822 383.269 75.8306V86.2092C383.269 86.2092 372.508 76.8686 372.508 70.6416L366.64 77.9064L363.704 66.4903L327.51 77.9064L333.379 68.566L310.881 71.6795L319.685 60.2632C319.685 60.2632 294.252 73.7551 293.273 85.1714C292.296 96.5876 284.852 107.405 284.852 107.405C284.852 107.405 264.906 54.0361 293.273 38.4685Z" fill="#2F2E41"/>
<path d="M538.815 410.82C532.954 416.946 518.429 426.169 500.821 436.153C494.271 439.865 487.298 443.688 480.183 447.489C463.208 456.561 445.435 465.552 430.771 472.814C411.692 482.264 397.863 488.789 397.863 488.789C397.863 488.789 396.673 483.041 394.756 475.689C392.19 465.845 388.323 453.122 384.292 447.489C384.152 447.294 384.01 447.113 383.871 446.93C382.696 445.445 381.515 444.577 380.348 444.577L438.59 409.788L463.756 394.748L445.625 353.037L422.881 300.71L436.608 258.621L450.406 216.311H476.263C476.263 216.311 484.825 234.32 495.773 259.434C497.408 263.19 499.098 267.105 500.821 271.147C523.344 323.939 551.423 397.66 538.815 410.82Z" fill="#D0CDE1"/>
<path d="M341.985 508.88C327.602 526.046 268.219 490.086 247.448 476.676C242.925 473.757 240.233 471.91 240.233 471.91L259.233 447.489L265.252 439.759C265.252 439.759 270.637 442.512 278.596 446.991C278.885 447.157 279.175 447.324 279.473 447.489C286.335 451.374 294.952 456.449 303.646 462.113C315.644 469.935 327.773 478.855 335.592 487.257C343.237 495.47 346.752 503.186 341.985 508.88Z" fill="#A0616A"/>
<path d="M278.596 446.993C276.471 446.985 274.35 447.151 272.256 447.489C254.265 450.468 248.958 466.162 247.448 476.677C246.965 479.887 246.781 483.133 246.9 486.376L231.006 474.595L225.215 470.304C211.277 465.62 198.857 457.302 188.089 447.489C178.747 438.827 170.367 429.251 163.085 418.913C155.831 408.726 149.365 398.039 143.739 386.937C142.169 383.839 141.325 380.446 141.267 376.999C141.209 373.551 141.938 370.134 143.403 366.988L163.085 324.716L191.853 262.934C192.064 261.464 192.296 260.026 192.549 258.621C198.254 227.096 213.538 213.099 213.538 213.099H225.215L233.025 258.621L242.729 315.176L235.929 336.55L220.215 385.911L235.231 401.629L278.596 446.993Z" fill="#D0CDE1"/>
<path d="M291.81 315.222L301.792 326.445C305.5 325.762 309.373 324.961 313.362 324.062L310.496 315.222L317.506 323.102C359.765 313.088 412.142 293.613 412.142 293.613C412.142 293.613 355.594 297.608 313.373 288.72C294.692 284.787 275.471 293.711 267.804 310.592C263.35 320.406 264.048 328.906 279.852 328.906C285.192 328.818 290.517 328.336 295.779 327.463L291.81 315.222Z" fill="#00BAFC"/>
<path d="M519.369 499.679V504.256C519.371 505.513 519.129 506.758 518.656 507.93C518.446 508.45 518.192 508.956 517.896 509.438C516.965 510.946 515.64 512.194 514.056 513.062C512.471 513.929 510.679 514.385 508.858 514.385H159.391C157.569 514.385 155.777 513.929 154.193 513.062C152.608 512.194 151.285 510.946 150.352 509.438C150.057 508.956 149.803 508.45 149.593 507.93C149.12 506.758 148.878 505.513 148.881 504.256V499.679C148.88 498.347 149.152 497.03 149.68 495.802C150.208 494.573 150.982 493.457 151.958 492.515C152.934 491.575 154.093 490.829 155.368 490.321C156.644 489.811 158.011 489.55 159.391 489.55H179.535V487.416C179.535 487.359 179.546 487.305 179.568 487.253C179.59 487.203 179.622 487.157 179.663 487.116C179.704 487.078 179.752 487.046 179.805 487.026C179.859 487.004 179.915 486.994 179.973 486.994H190.483C190.541 486.994 190.598 487.004 190.651 487.026C190.704 487.046 190.753 487.078 190.793 487.116C190.834 487.157 190.866 487.203 190.888 487.253C190.91 487.305 190.922 487.359 190.921 487.416V489.55H197.488V487.416C197.487 487.359 197.499 487.305 197.521 487.253C197.543 487.203 197.575 487.157 197.616 487.116C197.656 487.078 197.705 487.046 197.758 487.026C197.811 487.004 197.868 486.994 197.926 486.994H208.435C208.494 486.994 208.55 487.004 208.604 487.026C208.656 487.046 208.706 487.078 208.746 487.116C208.788 487.157 208.819 487.203 208.842 487.253C208.863 487.305 208.875 487.359 208.875 487.416V489.55H215.448V487.416C215.448 487.359 215.458 487.305 215.481 487.253C215.504 487.203 215.535 487.157 215.577 487.116C215.617 487.078 215.665 487.046 215.719 487.026C215.771 487.004 215.829 486.994 215.885 486.994H226.396C226.454 486.994 226.51 487.004 226.565 487.026C226.617 487.046 226.667 487.078 226.706 487.116C226.748 487.157 226.779 487.203 226.802 487.253C226.823 487.305 226.835 487.359 226.835 487.416V489.55H233.4V487.416C233.4 487.359 233.413 487.305 233.433 487.253C233.456 487.203 233.488 487.157 233.529 487.116C233.569 487.078 233.619 487.046 233.671 487.026C233.725 487.004 233.781 486.994 233.84 486.994H244.35C244.406 486.994 244.465 487.004 244.517 487.026C244.571 487.046 244.619 487.078 244.658 487.116C244.7 487.157 244.731 487.203 244.754 487.253C244.777 487.305 244.788 487.359 244.788 487.416V489.55H251.354V487.416C251.354 487.359 251.365 487.305 251.388 487.253C251.408 487.203 251.442 487.157 251.481 487.116C251.523 487.078 251.571 487.046 251.623 487.026C251.677 487.004 251.733 486.994 251.792 486.994H262.302C262.36 486.994 262.417 487.004 262.469 487.026C262.523 487.046 262.571 487.078 262.613 487.116C262.652 487.157 262.685 487.203 262.706 487.253C262.729 487.305 262.74 487.359 262.74 487.416V489.55H269.315V487.416C269.315 487.359 269.325 487.305 269.348 487.253C269.369 487.203 269.402 487.157 269.442 487.116C269.483 487.078 269.531 487.046 269.583 487.026C269.637 487.004 269.694 486.994 269.752 486.994H280.263C280.321 486.994 280.377 487.004 280.429 487.026C280.483 487.046 280.531 487.078 280.573 487.116C280.613 487.157 280.646 487.203 280.667 487.253C280.69 487.305 280.7 487.359 280.7 487.416V489.55H287.267V487.416C287.267 487.359 287.277 487.305 287.3 487.253C287.321 487.203 287.354 487.157 287.394 487.116C287.435 487.078 287.483 487.046 287.538 487.026C287.59 487.004 287.648 486.994 287.704 486.994H370.033C370.092 486.994 370.148 487.004 370.202 487.026C370.254 487.046 370.302 487.078 370.344 487.116C370.385 487.157 370.417 487.203 370.44 487.253C370.46 487.305 370.473 487.359 370.471 487.416V489.55H377.046V487.416C377.046 487.359 377.056 487.305 377.079 487.253C377.1 487.203 377.133 487.157 377.173 487.116C377.215 487.078 377.262 487.046 377.317 487.026C377.369 487.004 377.427 486.994 377.483 486.994H387.994C388.11 486.994 388.221 487.038 388.302 487.118C388.385 487.197 388.431 487.303 388.433 487.416V489.55H394.998V487.416C394.998 487.359 395.01 487.305 395.031 487.253C395.054 487.203 395.085 487.157 395.127 487.116C395.167 487.078 395.215 487.046 395.269 487.026C395.323 487.004 395.379 486.994 395.437 486.994H405.946C406.004 486.994 406.062 487.004 406.115 487.026C406.169 487.046 406.217 487.078 406.256 487.116C406.298 487.157 406.329 487.203 406.352 487.253C406.373 487.305 406.385 487.359 406.385 487.416V489.55H412.952V487.416C412.95 487.359 412.962 487.305 412.983 487.253C413.006 487.203 413.037 487.157 413.079 487.116C413.121 487.078 413.169 487.046 413.221 487.026C413.275 487.004 413.331 486.994 413.39 486.994H423.9C423.956 486.994 424.015 487.004 424.067 487.026C424.121 487.046 424.169 487.078 424.21 487.116C424.25 487.157 424.283 487.203 424.304 487.253C424.327 487.305 424.338 487.359 424.338 487.416V489.55H430.912V487.416C430.912 487.359 430.923 487.305 430.944 487.253C430.967 487.203 431 487.157 431.04 487.116C431.081 487.078 431.129 487.046 431.181 487.026C431.235 487.004 431.292 486.994 431.35 486.994H441.86C441.975 486.994 442.085 487.04 442.165 487.118C442.246 487.199 442.292 487.305 442.29 487.416V489.55H448.865V487.416C448.865 487.359 448.875 487.305 448.898 487.253C448.919 487.203 448.952 487.157 448.992 487.116C449.033 487.078 449.081 487.046 449.135 487.026C449.188 487.004 449.246 486.994 449.302 486.994H459.813C459.871 486.994 459.927 487.004 459.981 487.026C460.033 487.046 460.081 487.078 460.123 487.116C460.165 487.157 460.196 487.203 460.219 487.253C460.24 487.305 460.252 487.359 460.25 487.416V489.55H466.817V487.416C466.817 487.359 466.829 487.305 466.85 487.253C466.873 487.203 466.904 487.157 466.946 487.116C466.985 487.078 467.033 487.046 467.087 487.026C467.14 487.004 467.198 486.994 467.254 486.994H477.765C477.823 486.994 477.879 487.004 477.933 487.026C477.988 487.046 478.035 487.078 478.075 487.116C478.117 487.157 478.148 487.203 478.171 487.253C478.192 487.305 478.204 487.359 478.204 487.416V489.55H508.858C510.237 489.55 511.604 489.811 512.881 490.321C514.156 490.829 515.315 491.575 516.29 492.515C517.267 493.457 518.042 494.573 518.569 495.802C519.096 497.03 519.369 498.347 519.369 499.679Z" fill="#3F3D56"/>
<path d="M620.988 507.928H47.3471V509.438H620.988V507.928Z" fill="#3F3D56"/>
<path d="M491.229 306.888H360.973V304.302H301.908V306.888H171.115C168.778 306.888 166.537 307.783 164.884 309.375C163.232 310.968 162.304 313.128 162.304 315.378V487.265C162.304 489.518 163.232 491.676 164.884 493.27C166.537 494.862 168.778 495.756 171.115 495.756H491.229C493.567 495.756 495.806 494.862 497.46 493.27C499.113 491.676 500.04 489.518 500.04 487.265V315.378C500.04 314.264 499.813 313.16 499.369 312.13C498.927 311.1 498.277 310.164 497.46 309.375C496.642 308.586 495.671 307.962 494.602 307.534C493.531 307.109 492.385 306.888 491.229 306.888Z" fill="#3F3D56"/>
<path d="M331.429 385.752C342.233 385.752 350.994 377.312 350.994 366.898C350.994 356.484 342.233 348.043 331.429 348.043C320.623 348.043 311.862 356.484 311.862 366.898C311.862 377.312 320.623 385.752 331.429 385.752Z" stroke="#D0CDE1" stroke-width="2" stroke-miterlimit="10"/>
<path d="M325.167 392.54C335.973 392.54 344.733 384.098 344.733 373.686C344.733 363.272 335.973 354.832 325.167 354.832C314.363 354.832 305.602 363.272 305.602 373.686C305.602 384.098 314.363 392.54 325.167 392.54Z" fill="#D0CDE1"/>
<path d="M84.8692 500.309H62.9565V521.426H84.8692V500.309Z" fill="#D0CDE1"/>
<path d="M71.5681 483.718V509.36H98.1763V483.718H71.5681ZM97.0181 508.243H72.7185V484.834H97.0181V508.243Z" fill="#3F3D56"/>
<path d="M591.99 500.309H570.077V521.426H591.99V500.309Z" fill="#D0CDE1"/>
<path d="M578.688 483.718V509.36H605.296V483.718H578.688ZM604.138 508.243H579.84V484.834H604.138V508.243Z" fill="#3F3D56"/>
<path d="M74.0177 175.176C108.31 175.176 136.109 148.386 136.109 115.339C136.109 82.2923 108.31 55.5024 74.0177 55.5024C39.7256 55.5024 11.9265 82.2923 11.9265 115.339C11.9265 148.386 39.7256 175.176 74.0177 175.176Z" fill="#00BAFC"/>
<path d="M95.6556 44.2331C90.0335 43.544 84.3435 43.544 78.7217 44.2331C66.1967 45.818 54.4062 50.832 44.7496 58.6806C35.0929 66.5291 27.9754 76.8826 24.2413 88.5123C22.5431 93.8124 21.5812 99.3059 21.3812 104.85C21.3531 105.62 21.3342 106.4 21.3342 107.18C21.3517 124.006 28.2956 140.138 40.6419 152.036C52.9881 163.935 69.7283 170.626 87.1888 170.643C88.5904 170.643 89.9921 170.598 91.3752 170.516C94.6215 170.32 97.8479 169.889 101.027 169.229C116.211 166.082 129.753 157.866 139.26 146.031C148.767 134.196 153.629 119.504 152.987 104.55C152.344 89.5957 146.238 75.3415 135.748 64.3048C125.257 53.2681 111.057 46.1589 95.6556 44.2331ZM107.801 165.548H107.792C102.488 167.292 96.9675 168.35 91.375 168.694C89.9921 168.784 88.5904 168.83 87.1885 168.83C70.2283 168.81 53.9685 162.308 41.9758 150.751C29.9831 139.194 23.2365 123.524 23.2158 107.18C23.2158 106.4 23.2346 105.62 23.2627 104.85C23.9096 88.9211 30.9248 73.851 42.8402 62.794C54.7556 51.7372 70.6473 45.5507 87.1885 45.5295C102.345 45.5303 117.008 50.7163 128.567 60.1637C140.125 69.6111 147.828 82.7061 150.303 97.1159C152.777 111.526 149.864 126.314 142.08 138.846C134.296 151.379 122.149 160.841 107.801 165.548Z" fill="#3F3D56"/>
<path d="M88.1294 49.1558H86.2477V61.8486H88.1294V49.1558Z" fill="#3F3D56"/>
<path d="M45.2792 65.5095L43.9487 66.7916L53.2619 75.7668L54.5923 74.4845L45.2792 65.5095Z" fill="#3F3D56"/>
<path d="M26.9787 106.273V108.086H40.1496V106.273H26.9787Z" fill="#3F3D56"/>
<path d="M43.9487 147.567L45.2792 148.849L54.5923 139.874L53.2619 138.592L43.9487 147.567Z" fill="#3F3D56"/>
<path d="M119.785 74.4845L121.115 75.7668L130.429 66.7916L129.098 65.5095L119.785 74.4845Z" fill="#3F3D56"/>
<path d="M134.227 106.273V108.086H147.398V106.273H134.227Z" fill="#3F3D56"/>
<path d="M121.115 138.592L119.785 139.874L129.098 148.849L130.429 147.567L121.115 138.592Z" fill="#3F3D56"/>
<path d="M88.1294 152.51H86.2477V165.203H88.1294V152.51Z" fill="#3F3D56"/>
<path d="M90.011 103.553C89.1967 102.965 88.2065 102.646 87.1885 102.646C86.1708 102.646 85.1804 102.965 84.3663 103.553C83.809 103.961 83.35 104.481 83.021 105.076C82.6042 105.843 82.424 106.709 82.5015 107.571C82.579 108.433 82.911 109.256 83.4583 109.942C84.0058 110.629 84.7456 111.15 85.5904 111.444C86.4352 111.738 87.3496 111.793 88.2256 111.602C89.1019 111.411 89.9029 110.982 90.5342 110.366C91.1656 109.751 91.6008 108.974 91.7885 108.127C91.9762 107.281 91.9088 106.4 91.5938 105.59C91.2788 104.779 90.7296 104.072 90.011 103.553ZM87.1885 109.899C86.4408 109.897 85.7242 109.61 85.1954 109.1C84.6665 108.591 84.3685 107.9 84.3663 107.179C84.37 106.629 84.5435 106.093 84.865 105.638C85.1406 105.253 85.5146 104.944 85.9508 104.739C86.3869 104.535 86.8706 104.442 87.3548 104.47C87.8392 104.498 88.3077 104.646 88.7152 104.9C89.1227 105.153 89.4554 105.504 89.681 105.918C89.9067 106.332 90.0179 106.795 90.0035 107.262C89.9892 107.73 89.85 108.186 89.5994 108.586C89.3488 108.986 88.9952 109.317 88.5729 109.548C88.1506 109.778 87.6737 109.899 87.1885 109.899Z" fill="#3F3D56"/>
<path d="M95.6556 28.3035H78.7217V44.6226H95.6556V28.3035Z" fill="#3F3D56"/>
<path d="M87.1885 31.0235C99.6583 31.0235 109.767 27.5733 109.767 23.3171C109.767 19.0611 99.6583 15.6108 87.1885 15.6108C74.7187 15.6108 64.61 19.0611 64.61 23.3171C64.61 27.5733 74.7187 31.0235 87.1885 31.0235Z" fill="#3F3D56"/>
<path d="M90.0108 72.728H84.3662V103.553H90.0108V72.728Z" fill="#3F3D56"/>
<path d="M176.866 167.881H0V169.694H176.866V167.881Z" fill="#3F3D56"/>
<path d="M117.854 453.951C118.584 478.048 103.974 486.878 85.6394 487.393C85.2135 487.406 84.7896 487.414 84.3675 487.416C83.5173 487.422 82.6752 487.408 81.8415 487.375C65.2598 486.711 52.1342 478.228 51.4552 455.821C50.7523 432.63 80.6215 402.496 82.8625 400.268L82.8665 400.266C82.9517 400.181 82.9952 400.139 82.9952 400.139C82.9952 400.139 117.123 429.857 117.854 453.951Z" fill="#D0CDE1"/>
<path d="M84.3196 483.741L95.9663 467.051L84.3433 485.538L84.3675 487.415C83.5173 487.421 82.6754 487.407 81.8417 487.375L82.4192 463.233L82.4033 463.046L82.4248 463.01L82.48 460.729L69.7254 442.883L82.465 459.021L82.5102 459.503L82.9465 441.263L71.93 422.76L82.9779 438.058L82.8625 400.268L82.8627 400.143L82.8665 400.266L83.5979 430.05L93.6381 417.951L83.6306 432.616L83.8498 448.932L93.089 433.007L83.8837 451.329L84.0058 460.402L97.4419 438.221L84.0467 463.568L84.3196 483.741Z" fill="#3F3D56"/>
<path d="M624.973 453.951C625.704 478.048 611.094 486.878 592.76 487.393C592.333 487.406 591.91 487.414 591.487 487.416C590.637 487.422 589.796 487.408 588.962 487.375C572.379 486.711 559.254 478.228 558.575 455.821C557.873 432.63 587.742 402.496 589.983 400.268L589.987 400.266C590.071 400.181 590.115 400.139 590.115 400.139C590.115 400.139 624.244 429.857 624.973 453.951Z" fill="#D0CDE1"/>
<path d="M591.44 483.741L603.087 467.051L591.465 485.538L591.487 487.415C590.637 487.421 589.796 487.407 588.962 487.375L589.54 463.233L589.523 463.046L589.546 463.01L589.6 460.729L576.846 442.883L589.585 459.021L589.631 459.503L590.067 441.263L579.05 422.76L590.098 438.058L589.983 400.268V400.143L589.987 400.266L590.719 430.05L600.758 417.951L590.75 432.616L590.971 448.932L600.208 433.007L591.004 451.329L591.125 460.402L604.562 438.221L591.167 463.568L591.44 483.741Z" fill="#3F3D56"/>
</g>
</svg>
