<svg width="304" height="80" viewBox="0 0 304 80" fill="none" xmlns="http://www.w3.org/2000/svg">
<path d="M81.9731 52.7331V23.9731H105.173C106.186 23.9731 107.12 24.2264 107.973 24.7331C108.826 25.2398 109.506 25.9198 110.013 26.7731C110.52 27.5998 110.773 28.5198 110.773 29.5331V37.2931C110.773 38.3064 110.52 39.2398 110.013 40.0931C109.506 40.9464 108.826 41.6264 107.973 42.1331C107.12 42.6131 106.186 42.8531 105.173 42.8531L87.2531 42.8931V52.7331H81.9731ZM87.7331 37.5331H104.933C105.066 37.5331 105.186 37.4931 105.293 37.4131C105.4 37.3331 105.453 37.2264 105.453 37.0931V29.7331C105.453 29.5998 105.4 29.4931 105.293 29.4131C105.186 29.3064 105.066 29.2531 104.933 29.2531H87.7331C87.5997 29.2531 87.4797 29.3064 87.3731 29.4131C87.2931 29.4931 87.2531 29.5998 87.2531 29.7331V37.0931C87.2531 37.2264 87.2931 37.3331 87.3731 37.4131C87.4797 37.4931 87.5997 37.5331 87.7331 37.5331ZM122.934 52.7331C121.92 52.7331 121 52.4798 120.174 51.9731C119.347 51.4664 118.68 50.7998 118.174 49.9731C117.667 49.1464 117.414 48.2264 117.414 47.2131V35.0531C117.414 34.0398 117.667 33.1198 118.174 32.2931C118.68 31.4664 119.347 30.7998 120.174 30.2931C121 29.7864 121.92 29.5331 122.934 29.5331H135.454C136.467 29.5331 137.387 29.7864 138.214 30.2931C139.067 30.7998 139.734 31.4664 140.214 32.2931C140.72 33.1198 140.974 34.0398 140.974 35.0531V47.2131C140.974 48.2264 140.72 49.1464 140.214 49.9731C139.734 50.7998 139.08 51.4664 138.254 51.9731C137.427 52.4798 136.494 52.7331 135.454 52.7331H122.934ZM123.134 47.4931H135.254C135.387 47.4931 135.494 47.4531 135.574 47.3731C135.68 47.2664 135.734 47.1464 135.734 47.0131V35.2531C135.734 35.1198 135.68 35.0131 135.574 34.9331C135.494 34.8264 135.387 34.7731 135.254 34.7731H123.134C123 34.7731 122.88 34.8264 122.774 34.9331C122.694 35.0131 122.654 35.1198 122.654 35.2531V47.0131C122.654 47.1464 122.694 47.2664 122.774 47.3731C122.88 47.4531 123 47.4931 123.134 47.4931ZM148.29 52.7331V35.0531C148.29 34.0398 148.543 33.1198 149.05 32.2931C149.556 31.4664 150.223 30.7998 151.05 30.2931C151.903 29.7864 152.823 29.5331 153.81 29.5331H166.69V34.7731H154.01C153.876 34.7731 153.756 34.8264 153.65 34.9331C153.57 35.0131 153.53 35.1198 153.53 35.2531V52.7331H148.29ZM178.748 52.7331C177.735 52.7331 176.815 52.4798 175.988 51.9731C175.161 51.4664 174.495 50.7998 173.988 49.9731C173.481 49.1464 173.228 48.2264 173.228 47.2131V22.4131H178.468V29.5331H187.508V34.7731H178.468V47.0131C178.468 47.1464 178.508 47.2664 178.588 47.3731C178.695 47.4531 178.815 47.4931 178.948 47.4931H187.508V52.7331H178.748ZM194.767 52.7331V27.4531C194.767 26.4398 195.02 25.5198 195.527 24.6931C196.034 23.8664 196.7 23.1998 197.527 22.6931C198.354 22.1864 199.274 21.9331 200.287 21.9331H209.047V27.2131H200.487C200.354 27.2131 200.234 27.2664 200.127 27.3731C200.047 27.4531 200.007 27.5598 200.007 27.6931V29.5331H209.047V34.7731H200.007V52.7331H194.767ZM221.668 52.7331C220.655 52.7331 219.735 52.4798 218.908 51.9731C218.081 51.4664 217.415 50.7998 216.908 49.9731C216.401 49.1464 216.148 48.2264 216.148 47.2131V35.0531C216.148 34.0398 216.401 33.1198 216.908 32.2931C217.415 31.4664 218.081 30.7998 218.908 30.2931C219.735 29.7864 220.655 29.5331 221.668 29.5331H234.188C235.201 29.5331 236.121 29.7864 236.948 30.2931C237.801 30.7998 238.468 31.4664 238.948 32.2931C239.455 33.1198 239.708 34.0398 239.708 35.0531V47.2131C239.708 48.2264 239.455 49.1464 238.948 49.9731C238.468 50.7998 237.815 51.4664 236.988 51.9731C236.161 52.4798 235.228 52.7331 234.188 52.7331H221.668ZM221.868 47.4931H233.988C234.121 47.4931 234.228 47.4531 234.308 47.3731C234.415 47.2664 234.468 47.1464 234.468 47.0131V35.2531C234.468 35.1198 234.415 35.0131 234.308 34.9331C234.228 34.8264 234.121 34.7731 233.988 34.7731H221.868C221.735 34.7731 221.615 34.8264 221.508 34.9331C221.428 35.0131 221.388 35.1198 221.388 35.2531V47.0131C221.388 47.1464 221.428 47.2664 221.508 47.3731C221.615 47.4531 221.735 47.4931 221.868 47.4931ZM252.427 52.7331C251.413 52.7331 250.493 52.4798 249.667 51.9731C248.84 51.4664 248.173 50.7998 247.667 49.9731C247.16 49.1464 246.907 48.2264 246.907 47.2131V21.8931H252.187V47.0131C252.187 47.1464 252.227 47.2664 252.307 47.3731C252.413 47.4531 252.533 47.4931 252.667 47.4931H257.107V52.7331H252.427ZM264.774 52.7331V29.5331H270.014V52.7331H264.774ZM264.774 27.2131V21.9331H270.014V27.2131H264.774ZM283.121 52.7331C282.108 52.7331 281.188 52.4798 280.361 51.9731C279.535 51.4664 278.868 50.7998 278.361 49.9731C277.855 49.1464 277.601 48.2264 277.601 47.2131V35.0531C277.601 34.0398 277.855 33.1198 278.361 32.2931C278.868 31.4664 279.535 30.7998 280.361 30.2931C281.188 29.7864 282.108 29.5331 283.121 29.5331H295.641C296.655 29.5331 297.575 29.7864 298.401 30.2931C299.255 30.7998 299.921 31.4664 300.401 32.2931C300.908 33.1198 301.161 34.0398 301.161 35.0531V47.2131C301.161 48.2264 300.908 49.1464 300.401 49.9731C299.921 50.7998 299.268 51.4664 298.441 51.9731C297.615 52.4798 296.681 52.7331 295.641 52.7331H283.121ZM283.321 47.4931H295.441C295.575 47.4931 295.681 47.4531 295.761 47.3731C295.868 47.2664 295.921 47.1464 295.921 47.0131V35.2531C295.921 35.1198 295.868 35.0131 295.761 34.9331C295.681 34.8264 295.575 34.7731 295.441 34.7731H283.321C283.188 34.7731 283.068 34.8264 282.961 34.9331C282.881 35.0131 282.841 35.1198 282.841 35.2531V47.0131C282.841 47.1464 282.881 47.2664 282.961 47.3731C283.068 47.4531 283.188 47.4931 283.321 47.4931Z" fill="#1E80B5"/>
<g clip-path="url(#clip0_6_47)">
<path d="M67.6746 49.903C65.3217 56.3674 60.8003 61.816 54.8805 65.3205C48.9608 68.8248 42.009 70.1682 35.2098 69.1218C28.4106 68.0752 22.1846 64.7036 17.5926 59.5813C13.0006 54.459 10.3268 47.9029 10.0267 41.0302C9.72668 34.1574 11.8189 27.3933 15.947 21.8902C20.075 16.3872 25.9835 12.4857 32.6656 10.8505C39.3478 9.21545 46.3902 9.94788 52.5927 12.923C58.7954 15.8982 63.7746 20.9319 66.6819 27.1667L62.5164 29.1091C60.0585 23.838 55.8489 19.5823 50.6051 17.0671C45.3612 14.5518 39.4073 13.9326 33.7581 15.315C28.1088 16.6973 23.1136 19.9957 19.6236 24.6482C16.1336 29.3006 14.3648 35.0192 14.6185 40.8296C14.8722 46.6401 17.1327 52.1828 21.0149 56.5134C24.897 60.8438 30.1608 63.6944 35.909 64.5792C41.6573 65.4639 47.5344 64.3281 52.5392 61.3654C57.5439 58.4027 61.3665 53.7962 63.3557 48.331L67.6746 49.903Z" fill="#1E80B5"/>
<path d="M23.0216 54.2602C19.6607 50.3938 17.7443 45.4819 17.5991 40.361C17.4538 35.2403 19.0886 30.2275 22.2249 26.1769C25.3612 22.1262 29.805 19.2885 34.7991 18.1469C39.7931 17.0054 45.0285 17.6309 49.6131 19.9167C54.1978 22.2025 57.848 26.0072 59.9418 30.6827C62.0358 35.3581 62.4437 40.6149 61.0961 45.5574C59.7487 50.4998 56.7292 54.8222 52.5521 57.788C48.375 60.7537 43.2989 62.1793 38.1884 61.822L38.4272 58.4077C42.7476 58.7098 47.0392 57.5046 50.5707 54.9972C54.1021 52.4898 56.6549 48.8356 57.7941 44.6571C58.9333 40.4785 58.5884 36.0344 56.8181 32.0815C55.0479 28.1288 51.9619 24.9122 48.086 22.9797C44.21 21.0472 39.7838 20.5184 35.5617 21.4835C31.3395 22.4486 27.5826 24.8477 24.9311 28.2722C22.2796 31.6967 20.8975 35.9346 21.0204 40.2639C21.1432 44.5932 22.7632 48.746 25.6047 52.0146L23.0216 54.2602Z" fill="#1E80B5"/>
<path d="M45.1426 24.8706C48.5812 26.1221 51.4793 28.5271 53.3433 31.676C55.2074 34.8248 55.9221 38.5226 55.3653 42.1391C54.8087 45.7557 53.0153 49.0675 50.2906 51.51C47.566 53.9525 44.0788 55.3748 40.4231 55.5344C36.7674 55.694 33.1694 54.5811 30.2422 52.3854C27.3151 50.1896 25.2398 47.0467 24.3701 43.4924C23.5003 39.9381 23.89 36.1922 25.4724 32.8929C27.055 29.5936 29.7325 26.9451 33.0489 25.3987L34.082 27.6143C31.2783 28.9217 29.0147 31.1608 27.6767 33.9502C26.3388 36.7394 26.0094 39.9064 26.7448 42.9114C27.48 45.9163 29.2345 48.5733 31.7092 50.4296C34.184 52.286 37.2258 53.227 40.3164 53.0919C43.407 52.957 46.3553 51.7546 48.6588 49.6897C50.9623 47.6246 52.4785 44.8248 52.9491 41.7672C53.4197 38.7097 52.8156 35.5835 51.2397 32.9213C49.6638 30.2593 47.2136 28.226 44.3065 27.1679L45.1426 24.8706Z" fill="#1E80B5"/>
<path d="M32.6066 31.6781C34.4702 30.0292 36.8478 29.0777 39.3344 28.9854C41.8209 28.8932 44.2625 29.6659 46.2431 31.172C48.2238 32.6782 49.621 34.8245 50.1966 37.2452C50.7722 39.6659 50.4905 42.2115 49.3998 44.4479C48.309 46.6842 46.4765 48.4733 44.2146 49.5101C41.9527 50.5469 39.4012 50.7673 36.9949 50.1337C34.5886 49.5003 32.4764 48.0521 31.0183 46.0357C29.5601 44.0196 28.8462 41.5602 28.9982 39.0765L30.8122 39.1875C30.6859 41.2514 31.2792 43.2952 32.4909 44.9707C33.7027 46.6463 35.4579 47.8498 37.4576 48.3762C39.4572 48.9027 41.5776 48.7195 43.4573 47.8579C45.337 46.9964 46.8599 45.5096 47.7663 43.6512C48.6727 41.7926 48.9067 39.6773 48.4284 37.6656C47.9501 35.654 46.789 33.8703 45.1431 32.6187C43.4971 31.3671 41.4681 30.7249 39.4017 30.8016C37.3354 30.8783 35.3595 31.669 33.8109 33.0392L32.6066 31.6781Z" fill="#1E80B5"/>
<path d="M43.0598 44.3542C41.9906 45.1239 40.6877 45.499 39.3731 45.4158C38.0584 45.3324 36.8133 44.7959 35.8498 43.8975C34.8864 42.9991 34.2644 41.7944 34.0895 40.4888C33.9148 39.1831 34.1981 37.8572 34.8913 36.737C35.5844 35.6168 36.6446 34.7717 37.8911 34.3455C39.1375 33.9194 40.4932 33.9386 41.7271 34.4C42.9609 34.8613 43.9967 35.7361 44.6579 36.8755C45.319 38.015 45.5647 39.3483 45.3529 40.6484L44.3008 40.4772C44.473 39.4203 44.2734 38.3366 43.736 37.4105C43.1985 36.4844 42.3567 35.7733 41.3538 35.3983C40.351 35.0234 39.249 35.0077 38.2359 35.3541C37.2227 35.7005 36.3611 36.3875 35.7977 37.298C35.2342 38.2083 35.0039 39.286 35.146 40.3474C35.288 41.4085 35.7937 42.3877 36.5768 43.118C37.3598 43.8482 38.3719 44.2842 39.4405 44.352C40.5091 44.4197 41.568 44.1148 42.437 43.4892L43.0598 44.3542Z" fill="#1E80B5"/>
<path d="M39.816 36.5709C40.5476 36.5901 41.2498 36.8624 41.8032 37.3414C42.3566 37.8202 42.7267 38.4762 42.8507 39.1974C42.9746 39.9188 42.8446 40.6606 42.4829 41.2968C42.1211 41.933 41.55 42.4241 40.8668 42.6863C40.1835 42.9486 39.4305 42.9658 38.7359 42.7351C38.0415 42.5044 37.4483 42.0401 37.0579 41.4212C36.6674 40.8022 36.5035 40.0671 36.5943 39.3408C36.685 38.6147 37.0248 37.9424 37.5557 37.4387L38.4089 38.3378C38.0861 38.6442 37.8794 39.0529 37.8243 39.4945C37.7691 39.9362 37.8687 40.3832 38.1062 40.7597C38.3437 41.1361 38.7044 41.4184 39.1266 41.5588C39.549 41.699 40.007 41.6885 40.4225 41.5291C40.838 41.3696 41.1854 41.0709 41.4054 40.6842C41.6254 40.2973 41.7044 39.846 41.6291 39.4073C41.5536 38.9688 41.3285 38.5698 40.992 38.2786C40.6554 37.9874 40.2284 37.8218 39.7834 37.8101L39.816 36.5709Z" fill="#1E80B5"/>
<path d="M39.9495 39.1386C39.6212 39.0191 39.2581 39.1884 39.1386 39.5167C39.0191 39.845 39.1884 40.2081 39.5167 40.3276C39.8451 40.4471 40.2081 40.2778 40.3276 39.9495C40.4471 39.6211 40.2778 39.2581 39.9495 39.1386Z" fill="#1E80B5"/>
</g>
<defs>
<clipPath id="clip0_6_47">
<rect width="62" height="62" fill="white" transform="translate(21.2053) rotate(20)"/>
</clipPath>
</defs>
</svg>
